<svg width="33" height="33" viewBox="0 0 33 33" fill="none" xmlns="http://www.w3.org/2000/svg"><path d="M19.9981 9.04205L16.5001 5.54404L13.0021 9.04205L12.0781 8.11805L16.5001 3.69604L20.9221 8.11805L19.9981 9.04205Z" fill="black"></path><path d="M15.8398 4.62012H17.1598V18.4801H15.8398V4.62012Z" fill="black"></path><path d="M23.0999 26.4001H9.89992C8.77792 26.4001 7.91992 25.5421 7.91992 24.4201V12.5401C7.91992 11.4181 8.77792 10.5601 9.89992 10.5601H14.5199V11.8801H9.89992C9.50392 11.8801 9.23992 12.1441 9.23992 12.5401V24.4201C9.23992 24.8161 9.50392 25.0801 9.89992 25.0801H23.0999C23.4959 25.0801 23.7599 24.8161 23.7599 24.4201V12.5401C23.7599 12.1441 23.4959 11.8801 23.0999 11.8801H18.4799V10.5601H23.0999C24.2219 10.5601 25.0799 11.4181 25.0799 12.5401V24.4201C25.0799 25.5421 24.2219 26.4001 23.0999 26.4001Z" fill="black"></path></svg>