<svg width="66" height="67" viewBox="0 0 66 67" fill="none" xmlns="http://www.w3.org/2000/svg">
<path d="M8.25 22.3333L15.7351 28.6654C16.2293 29.0836 16.8523 29.3125 17.4956 29.3125H48.5042C49.1477 29.3125 49.7706 29.0836 50.2648 28.6654L57.75 22.3333M17.875 39.0833H17.9025M48.125 39.0833H48.1525M22.4418 12.5625H43.5583C45.532 12.5625 47.3544 13.6361 48.3334 15.3757L56.3007 29.5294C57.2503 31.2167 57.75 33.1262 57.75 35.0698V51.6458C57.75 53.1877 56.5188 54.4375 55 54.4375H52.25C50.7312 54.4375 49.5 53.1877 49.5 51.6458V48.8542H16.5V51.6458C16.5 53.1877 15.2688 54.4375 13.75 54.4375H11C9.48123 54.4375 8.25 53.1877 8.25 51.6458V35.0698C8.25 33.1262 8.74956 31.2167 9.69933 29.5294L17.6664 15.3757C18.6457 13.6361 20.4681 12.5625 22.4418 12.5625ZM19.25 39.0833C19.25 39.8541 18.6344 40.4792 17.875 40.4792C17.1156 40.4792 16.5 39.8541 16.5 39.0833C16.5 38.3126 17.1156 37.6875 17.875 37.6875C18.6344 37.6875 19.25 38.3126 19.25 39.0833ZM49.5 39.0833C49.5 39.8541 48.8843 40.4792 48.125 40.4792C47.3657 40.4792 46.75 39.8541 46.75 39.0833C46.75 38.3126 47.3657 37.6875 48.125 37.6875C48.8843 37.6875 49.5 38.3126 49.5 39.0833Z" stroke="white" stroke-width="4.5" stroke-linecap="round" stroke-linejoin="round"/>
</svg>
