<svg width="0" height="0" class="hidden">
  <symbol id="bulb" viewBox="0 0 63 63" fill="none"
    xmlns="http://www.w3.org/2000/svg">
    <path d="M49.1415 22.7559C49.1417 20.4137 48.6758 18.0948 47.7703 15.9346C46.8649 13.7745 45.5386 11.8164 43.8683 10.1743C42.1981 8.53229 40.2176 7.2393 38.0424 6.37081C35.8673 5.50229 33.5409 5.07573 31.199 5.11587C26.7034 5.24956 22.4228 7.07144 19.2099 10.2189C15.9971 13.3664 14.0875 17.6086 13.8614 22.1006C13.754 25.0982 14.4126 28.0735 15.7751 30.7457C17.1376 33.4177 19.159 35.6983 21.6482 37.3718C22.3497 37.8279 22.9267 38.4514 23.327 39.186C23.7274 39.9208 23.9386 40.7436 23.9414 41.5802V45.4358H39.0614V41.5802C39.0614 40.7458 39.2688 39.9246 39.6647 39.19C40.0606 38.4554 40.6327 37.8307 41.3294 37.3718C43.729 35.7618 45.6966 33.5868 47.0587 31.0383C48.421 28.4898 49.1362 25.6455 49.1415 22.7559Z" stroke="white" stroke-width="4.30533" stroke-linecap="round" stroke-linejoin="round"/>
    <path d="M39.0599 53.0205C36.8789 54.6562 34.2263 55.5405 31.4999 55.5405C28.7736 55.5405 26.121 54.6562 23.9399 53.0205" stroke="white" stroke-width="4.30533" stroke-linecap="round" stroke-linejoin="round"/>
    <path d="M31.4751 14.2129L27.2919 21.2184C27.1024 21.5255 26.9989 21.8779 26.9921 22.2386C26.9853 22.5994 27.0752 22.9554 27.2529 23.2695C27.4305 23.5835 27.6891 23.8442 28.0018 24.0242C28.3146 24.2042 28.6699 24.297 29.0307 24.2929H34.0707C34.4276 24.2915 34.7786 24.385 35.0878 24.5638C35.3968 24.7425 35.6528 25.0001 35.8297 25.3102C36.0066 25.6204 36.0978 25.9719 36.0943 26.3288C36.0908 26.6859 35.9925 27.0354 35.8095 27.3421L31.5759 34.3729" stroke="white" stroke-width="4.30533" stroke-linecap="round" stroke-linejoin="round"/>
  </symbol>
  <symbol id="electricity"
    xmlns="http://www.w3.org/2000/svg" fill="none" viewBox="0 0 71 71">
    <path stroke="#fff" stroke-linecap="round" stroke-linejoin="round" stroke-width="5.07" d="M40.23 29.58h15.98L23.67 62.12l5.91-23.66H17.75l8.88-26.63h20.7l-2.95 7.4"/>
  </symbol>
  <symbol id="parking"
    xmlns="http://www.w3.org/2000/svg" fill="none" viewBox="0 0 65 65">
    <path fill="#fff" fill-rule="evenodd" d="M51.46 5.42a8.13 8.13 0 0 1 8.12 8.12v37.92a8.13 8.13 0 0 1-8.12 8.12H13.54a8.13 8.13 0 0 1-8.12-8.12V13.54a8.13 8.13 0 0 1 8.12-8.12h37.92Zm0 5.41H13.54a2.7 2.7 0 0 0-2.7 2.71v37.92a2.7 2.7 0 0 0 2.7 2.7h37.92a2.7 2.7 0 0 0 2.7-2.7V13.54a2.7 2.7 0 0 0-2.7-2.7Zm-27.08 5.42h8.12a10.83 10.83 0 0 1 .54 21.65l-.54.02h-5.42v8.12a2.7 2.7 0 0 1-5.41 0V18.96a2.7 2.7 0 0 1 2.7-2.71Zm8.12 5.42h-5.42V32.5h5.42l.4-.01a5.42 5.42 0 0 0-.4-10.82Z" clip-rule="evenodd"/>
  </symbol>
  <symbol id="twenty-four"
    xmlns="http://www.w3.org/2000/svg" fill="none" viewBox="0 0 59 59">
    <g fill="#fff" clip-path="url(#a)">
      <path d="M58.74 23.37a2.41 2.41 0 0 0-2.34-1.33l-2.93.21A27.26 27.26 0 0 0 27.24 2.26 27.27 27.27 0 0 0 0 29.5a27.27 27.27 0 0 0 27.24 27.24c8.7 0 16.94-4.2 22.05-11.25a2.42 2.42 0 0 0-3.92-2.85 22.49 22.49 0 0 1-18.13 9.26 22.42 22.42 0 0 1-22.4-22.4 22.42 22.42 0 0 1 22.4-22.4c9.94 0 18.39 6.53 21.3 15.52l-1.53.1a2.42 2.42 0 0 0-1.4 4.26l4.39 3.8a2.41 2.41 0 0 0 2.05 1.14l.14-.01h.21a2.43 2.43 0 0 0 1.66-.83l4.35-5.04c.64-.74.77-1.8.33-2.67Z"/>
      <path d="M14.43 37.94v-2.35l2.15-1.94c3.62-3.24 5.38-5.1 5.43-7.05 0-1.35-.81-2.42-2.73-2.42a6 6 0 0 0-3.55 1.38l-1.1-2.79a9.2 9.2 0 0 1 5.44-1.7c3.75 0 5.82 2.19 5.82 5.2 0 2.78-2.01 5-4.41 7.15l-1.54 1.27v.05h6.26v3.2H14.43Zm21.05 0v-3.96h-7.36v-2.53l6.28-10.1h4.75v9.72h2v2.91h-2v3.96h-3.67Zm0-6.87v-3.68c0-1 .05-2.01.12-3.08h-.1c-.54 1.07-.97 2.04-1.53 3.08l-2.22 3.63v.05h3.73Z"/>
    </g>
    <defs>
      <clipPath id="a">
        <path fill="#fff" d="M0 0h59v59H0z"/>
      </clipPath>
    </defs>
  </symbol>
  <symbol id="car"
    xmlns="http://www.w3.org/2000/svg" fill="none" viewBox="0 0 66 67">
    <path stroke="#fff" stroke-linecap="round" stroke-linejoin="round" stroke-width="4.5" d="m8.25 22.33 7.49 6.34c.49.41 1.11.64 1.76.64h31c.65 0 1.27-.23 1.76-.64l7.49-6.34M17.87 39.08h.03m30.23 0h.02m-25.7-26.52h21.1a5.5 5.5 0 0 1 4.78 2.82l7.97 14.15a11.3 11.3 0 0 1 1.45 5.54v16.58A2.77 2.77 0 0 1 55 54.44h-2.75a2.77 2.77 0 0 1-2.75-2.8v-2.79h-33v2.8a2.77 2.77 0 0 1-2.75 2.79H11a2.77 2.77 0 0 1-2.75-2.8V35.08c0-1.94.5-3.85 1.45-5.54l7.97-14.15a5.49 5.49 0 0 1 4.77-2.82Zm-3.2 26.52c0 .77-.62 1.4-1.38 1.4a1.4 1.4 0 0 1-1.37-1.4c0-.77.62-1.4 1.38-1.4.75 0 1.37.63 1.37 1.4Zm30.25 0c0 .77-.62 1.4-1.38 1.4a1.4 1.4 0 0 1-1.37-1.4c0-.77.62-1.4 1.38-1.4.75 0 1.37.63 1.37 1.4Z"/>
  </symbol>
  <symbol id="pencil"
    xmlns="http://www.w3.org/2000/svg" viewBox="0 0 24 24">
    <path fill="current" d="M4 20.75a.75.75 0 0 1-.75-.75v-4.18a.76.76 0 0 1 .22-.53L14.71 4.05a2.72 2.72 0 0 1 3.85 0l1.39 1.4a2.72 2.72 0 0 1 0 3.84L8.71 20.53a.75.75 0 0 1-.53.22Zm.75-4.62v3.12h3.12l7.91-7.91-3.12-3.12Zm12.1-5.85 2.04-2.05a1.22 1.22 0 0 0 0-1.73l-1.4-1.4a1.22 1.22 0 0 0-1.72 0l-2.05 2.06Z"/>
  </symbol>
  <symbol id="tick"
    xmlns="http://www.w3.org/2000/svg" viewBox="0 0 1024 1024">
    <path d="m760 380.4-61.6-61.6-263.2 263.1-109.6-109.5L264 534l171.2 171.2L760 380.4z"/>
  </symbol>
  <symbol id="download"
    xmlns="http://www.w3.org/2000/svg" fill="none" viewBox="0 0 24 24">
    <path stroke="#000" stroke-linecap="round" stroke-linejoin="round" stroke-width="2" d="M6 21h12M12 3v14m0 0 5-5m-5 5-5-5"/>
  </symbol>
  <symbol id="eye"
    xmlns="http://www.w3.org/2000/svg" fill="none" viewBox="0 0 24 24">
    <path fill="#080341" fill-rule="evenodd" d="M12 5.25c-2.77 0-5.2 1.66-6.87 3.2a20.4 20.4 0 0 0-2.74 3.1v.02h-.01l-.27.44.27.4v.01l.01.02a6.95 6.95 0 0 0 .19.26 20.4 20.4 0 0 0 2.55 2.85c1.67 1.54 4.1 3.2 6.87 3.2 2.77 0 5.2-1.66 6.87-3.2a20.39 20.39 0 0 0 2.74-3.1v-.02h.01v-.01l.28-.42-.28-.42-.01-.02a6.6 6.6 0 0 0-.19-.26 20.39 20.39 0 0 0-2.55-2.85c-1.67-1.54-4.1-3.2-6.87-3.2Zm-7.71 7.22L3.93 12a17.63 17.63 0 0 1 2.21-2.45C7.74 8.1 9.8 6.75 12 6.75s4.27 1.34 5.86 2.8A18.9 18.9 0 0 1 20.07 12a17.74 17.74 0 0 1-2.21 2.45c-1.6 1.46-3.66 2.8-5.86 2.8s-4.27-1.34-5.86-2.8a18.9 18.9 0 0 1-1.85-1.98Zm9.96-.47a2.25 2.25 0 1 1-4.5 0 2.25 2.25 0 0 1 4.5 0Zm1.5 0a3.75 3.75 0 1 1-7.5 0 3.75 3.75 0 0 1 7.5 0Z" clip-rule="evenodd"/>
  </symbol>
</svg>