<svg width="65" height="65" viewBox="0 0 65 65" fill="none" xmlns="http://www.w3.org/2000/svg">
<path fill-rule="evenodd" clip-rule="evenodd" d="M51.4587 5.41699C55.946 5.41699 59.5837 9.05468 59.5837 13.542V51.4587C59.5837 55.946 55.946 59.5837 51.4587 59.5837H13.542C9.05468 59.5837 5.41699 55.946 5.41699 51.4587V13.542C5.41699 9.05468 9.05468 5.41699 13.542 5.41699H51.4587ZM51.4587 10.8337H13.542C12.0462 10.8337 10.8337 12.0462 10.8337 13.542V51.4587C10.8337 52.9544 12.0462 54.167 13.542 54.167H51.4587C52.9544 54.167 54.167 52.9544 54.167 51.4587V13.542C54.167 12.0462 52.9544 10.8337 51.4587 10.8337ZM24.3753 16.2503H32.5003C38.4834 16.2503 43.3337 21.1006 43.3337 27.0837C43.3337 32.8854 38.7729 37.622 33.041 37.9037L32.5003 37.917H27.0837V46.042C27.0837 47.5378 25.8711 48.7503 24.3753 48.7503C22.8796 48.7503 21.667 47.5378 21.667 46.042V18.9587C21.667 17.4629 22.8796 16.2503 24.3753 16.2503ZM32.5003 21.667H27.0837V32.5003H32.5003L32.9046 32.4855C35.7073 32.2787 37.917 29.9392 37.917 27.0837C37.917 24.0921 35.4919 21.667 32.5003 21.667Z" fill="white"/>
</svg>
