<svg width="59" height="59" viewBox="0 0 59 59" fill="none" xmlns="http://www.w3.org/2000/svg">
<g clip-path="url(#clip0_499_270)">
<path d="M58.7427 23.367C58.3014 22.4895 57.367 21.956 56.4015 22.04L53.4666 22.2545C50.2832 10.7481 39.7455 2.26172 27.2384 2.26172C12.2191 2.26153 0 14.4816 0 29.4998C0 44.5191 12.2191 56.738 27.2382 56.738C35.932 56.738 44.1771 52.5319 49.2937 45.4885C50.079 44.405 49.8375 42.8925 48.756 42.1051C47.6725 41.3189 46.1588 41.5632 45.3736 42.6417C41.1645 48.4358 34.3852 51.8958 27.2371 51.8958C14.8875 51.8958 4.84181 41.8491 4.84181 29.5005C4.84181 17.1519 14.8877 7.10563 27.2373 7.10563C37.1834 7.10563 45.6265 13.6279 48.5385 22.616L47.0104 22.7278C46.0345 22.7982 45.1964 23.4529 44.8888 24.3812C44.5801 25.3114 44.8639 26.335 45.6036 26.9751L50.0001 30.7719C50.4279 31.4608 51.1843 31.9217 52.0524 31.9217C52.0979 31.9217 52.1404 31.9114 52.185 31.9093C52.1994 31.9093 52.2109 31.9156 52.2244 31.9156C52.2825 31.9156 52.3415 31.9147 52.4015 31.9093C53.0417 31.8617 53.6363 31.5623 54.0571 31.0764L58.409 26.0375C59.0514 25.297 59.1819 24.2412 58.7427 23.367Z" fill="white"/>
<path d="M14.4316 37.9392V35.5876L16.5761 33.6494C20.2008 30.4069 21.9621 28.5421 22.0127 26.6028C22.0127 25.2487 21.1964 24.1776 19.2799 24.1776C17.8514 24.1776 16.5999 24.8903 15.7318 25.5563L14.6337 22.7717C15.8851 21.8301 17.8244 21.0625 20.0715 21.0625C23.8248 21.0625 25.8925 23.2576 25.8925 26.2702C25.8925 29.0527 23.8766 31.2749 21.4762 33.4184L19.9441 34.6947V34.7444H26.1991V37.9371H14.4316V37.9392Z" fill="white"/>
<path d="M35.4762 37.9388V33.9803H28.124V31.4548L34.404 21.3428H39.1529V31.0704H41.144V33.9803H39.1529V37.9388H35.4762ZM35.4762 31.0704V27.3948C35.4762 26.3983 35.527 25.3789 35.6036 24.3056H35.5021C34.9644 25.3789 34.5303 26.3486 33.97 27.3948L31.749 31.0195V31.0704H35.4762Z" fill="white"/>
</g>
<defs>
<clipPath id="clip0_499_270">
<rect width="59" height="59" fill="white"/>
</clipPath>
</defs>
</svg>
